<svg width="51" height="51" viewBox="0 0 51 51" fill="none" xmlns="http://www.w3.org/2000/svg">
<g clip-path="url(#clip0_0_176)">
<path d="M44.6294 35.8725C44.6294 33.198 43.4295 30.6602 41.4235 28.9511V15.8408C40.5963 -5.28036 10.4034 -5.28026 9.57669 15.8408V30.884C8.32626 32.7618 6.37076 36.4404 6.37076 41.4886C6.37076 46.7416 10.6202 51 15.8822 51H31.912C38.9244 51 44.6294 45.295 44.6294 38.2825V35.8741C44.6293 35.8736 44.6293 35.8731 44.6294 35.8725ZM41.57 34.9827L38.8933 36.3223C35.1371 38.2026 30.8224 35.7555 30.263 31.8126L32.6512 30.5195C36.3382 28.5238 40.9413 30.7795 41.57 34.9827ZM12.5697 15.8408C13.2414 -1.30998 37.7589 -1.31038 38.4303 15.8408V27.2656C38.3582 27.2417 38.286 27.2182 38.2135 27.1961C36.2182 25.4197 33.9007 24.0994 31.4063 23.2908C35.3443 20.2983 36.2401 14.1405 33.1071 10.1328C32.8245 9.75669 32.3813 9.53539 31.9108 9.53539H19.0893C18.6188 9.53539 18.1756 9.75669 17.893 10.1328C14.7587 14.1421 15.657 20.3016 19.5963 23.2929C16.0826 24.4358 13.774 26.2855 12.5697 27.3914V15.8408ZM25.5 22.3591C20.512 22.4049 17.3101 16.7881 19.8855 12.5284H31.1146C33.6905 16.789 30.4866 22.4053 25.5 22.3591ZM20.7975 48.0069H15.8821C12.2889 48.0069 9.36368 45.1018 9.36368 41.4869C9.24655 29.4949 22.3927 21.5533 32.9542 27.1746C32.3602 27.3505 31.7806 27.5872 31.2262 27.8872L17.9225 35.3931C15.7408 36.6398 14.3855 38.9751 14.3855 41.4886C14.3855 42.3151 15.0572 42.9851 15.8837 42.9851C18.6392 42.9851 20.7974 45.2292 20.7974 47.8988V48.0069H20.7975ZM23.7906 48.0069V47.8988C23.7906 45.4493 22.2558 41.2025 17.5989 40.1776C17.9131 39.2676 18.5488 38.4826 19.4078 37.9917C21.8624 36.5885 25.3751 34.5809 27.5288 33.3502C28.3439 36.3335 30.5329 38.3976 32.9428 39.3433C28.5196 42.0129 27.521 46.2964 27.304 48.0069H23.7906ZM31.912 48.0069H30.327C30.7925 45.2403 32.5368 42.8486 35.1093 41.5614C37.404 40.4136 39.9078 39.161 41.6363 38.2962C41.6288 43.652 37.2694 48.0069 31.912 48.0069Z" fill="#3CAFC0"/>
</g>
<defs>
<clipPath id="clip0_0_176">
<rect width="51" height="51" fill="white"/>
</clipPath>
</defs>
</svg>
