<svg width="51" height="51" viewBox="0 0 51 51" fill="none" xmlns="http://www.w3.org/2000/svg">
<g clip-path="url(#clip0_0_163)">
<path d="M44.6416 33.5938C44.4844 29.5975 42.777 25.0306 40.7593 21.6636C37.4151 15.5699 37.5727 8.30941 39.9872 2.02864C40.283 1.25896 39.8983 0.395346 39.1281 0.0997056C38.358 -0.196134 37.4935 0.188258 37.1975 0.95804C34.6349 7.625 34.3982 15.3697 37.5354 21.9225C30.7803 25.0103 19.33 24.9969 13.4086 22.0382C16.5913 15.4818 16.3921 7.69522 13.8024 0.95804C13.5064 0.188258 12.6421 -0.195835 11.8718 0.0997056C11.1016 0.395346 10.7169 1.25896 11.0127 2.02864C13.4233 8.29895 13.5953 15.5504 10.2407 21.6634C7.73865 25.8388 6.48547 30.362 6.35827 33.5937C6.11183 39.75 7.60787 45.5316 10.6847 50.3135C11.1312 51.0077 12.056 51.2076 12.7495 50.7619C13.4437 50.3161 13.6446 49.3924 13.1983 48.6988C9.79957 43.4164 8.67528 36.6172 9.66091 31.3381C16.8952 32.456 22.6183 38.6852 23.988 40.2918V49.4783C23.988 50.3027 24.657 50.9712 25.4822 50.9712C26.3073 50.9712 26.9763 50.3028 26.9763 49.4783V40.2906C28.3466 38.679 34.0708 32.4354 41.338 31.3325C42.3189 36.5799 41.2193 43.3873 37.8013 48.6995C37.355 49.393 37.5559 50.3168 38.2501 50.7626C38.9437 51.2084 39.8685 51.0081 40.3149 50.3142C43.3919 45.5321 44.8881 39.7502 44.6416 33.5938ZM25.4825 37.4657C23.1458 34.9182 17.5581 29.646 10.4017 28.4323C10.8163 27.1587 11.3461 25.9016 11.9872 24.6653C19.0792 28.2631 31.7443 27.9477 38.9564 24.5554C39.6223 25.8253 40.1699 27.1174 40.5965 28.4268C33.4269 29.6298 27.8237 34.9144 25.4825 37.4657Z" fill="#3CAFC0"/>
<path d="M25.4822 18.0276C26.3074 18.0276 26.9763 17.3592 26.9763 16.5347C26.9763 15.7101 26.3074 15.0417 25.4822 15.0417C24.657 15.0417 23.988 15.7101 23.988 16.5347C23.988 17.3592 24.657 18.0276 25.4822 18.0276Z" fill="#3CAFC0"/>
</g>
<defs>
<clipPath id="clip0_0_163">
<rect width="51" height="51" fill="white"/>
</clipPath>
</defs>
</svg>
