<svg width="45" height="45" viewBox="0 0 45 45" fill="none" xmlns="http://www.w3.org/2000/svg">
<g clip-path="url(#clip0_0_137)">
<path d="M43.682 34.6822C45.4358 32.9276 45.4358 30.0725 43.6815 28.3175C42.9562 27.5925 42.9519 26.4124 43.682 25.6822C45.436 23.9273 45.4359 21.0724 43.6817 19.3184C42.9612 18.5977 42.9475 17.4168 43.6817 16.6824C44.5318 15.8324 44.9999 14.7024 44.9999 13.5007C45.0258 9.53312 40.0969 7.49152 37.3171 10.3183C36.5916 11.0438 35.4116 11.0486 34.6817 10.3183C33.9612 9.59763 33.9475 8.41674 34.6817 7.68233C35.5318 6.83234 35.9999 5.70233 35.9999 4.50061C36.0258 0.533068 31.0968 -1.50854 28.317 1.31828C27.5916 2.04373 26.4116 2.04838 25.6816 1.31802C23.927 -0.435747 21.0721 -0.435747 19.317 1.31854C18.5921 2.0439 17.4119 2.04812 16.6818 1.31802C14.9269 -0.43601 12.0721 -0.435835 10.3181 1.31828C9.59746 2.03889 8.41647 2.0526 7.68215 1.31828C6.83216 0.468205 5.70225 0.000101206 4.50052 0.000101206C0.532805 -0.0257385 -1.50836 4.90262 1.31828 7.68241C2.04364 8.40786 2.04838 9.58796 1.31802 10.3178C-0.435746 12.0724 -0.435746 14.9275 1.31854 16.6826C2.04381 17.4076 2.04812 18.5877 1.31802 19.3179C-0.43601 21.0728 -0.435834 23.9276 1.31828 25.6816C2.0388 26.4023 2.05252 27.5832 1.31828 28.3176C0.468205 29.1676 0.000101882 30.2976 0.000101882 31.4994C-0.0258257 35.4669 4.90315 37.5085 7.68294 34.6817C8.40839 33.9562 9.5884 33.9516 10.3183 34.682C11.0389 35.4027 11.0526 36.5834 10.3183 37.3177C9.46826 38.1677 9.00015 39.2977 9.00015 40.4994C8.97423 44.467 13.9032 46.5086 16.683 43.6817C17.4084 42.9563 18.5885 42.9516 19.3184 43.682C21.073 45.4358 23.928 45.4358 25.683 43.6815C26.408 42.9561 27.5882 42.9519 28.3183 43.682C30.0732 45.436 32.9279 45.4359 34.682 43.6817C35.4026 42.9611 36.5835 42.9474 37.3179 43.6817C38.1679 44.5318 39.2978 44.9999 40.4995 44.9999C44.4672 45.0258 46.5084 40.0974 43.6817 37.3176C42.9564 36.5923 42.9517 35.4121 43.682 34.6822ZM32.8173 30.1821C33.1694 30.5341 33.3633 31.0023 33.3633 31.5001C33.374 33.1422 31.3331 33.988 30.1822 32.8173C29.7135 32.3486 29.1644 32.0049 28.5779 31.7858L31.7849 28.5793C32.0031 29.1624 32.3459 29.7107 32.8173 30.1821ZM31.785 19.5792C32.0036 20.1634 32.3467 20.7116 32.8171 21.1818C33.5435 21.9087 33.5435 23.0913 32.8176 23.8177L23.8175 32.8173C23.0912 33.5436 21.9089 33.5435 21.1824 32.8173C20.7125 32.3473 20.1639 32.0041 19.5792 31.7853L31.785 19.5792ZM23.8172 3.18243C24.286 3.65159 24.8351 3.99524 25.421 4.21435L4.21532 25.4206C3.99726 24.8375 3.65449 24.289 3.1827 23.8172C2.45646 23.0909 2.45655 21.9087 3.1827 21.182L21.1814 3.18296C21.9082 2.45646 23.0909 2.45646 23.8172 3.18243ZM14.8177 3.1827C15.2876 3.65265 15.8362 3.99586 16.4208 4.2147L4.21506 16.4208C3.99647 15.8367 3.65335 15.2884 3.18296 14.8182C2.45655 14.0914 2.45655 12.9087 3.18243 12.1824L12.1825 3.1827C12.9088 2.45637 14.091 2.45646 14.8177 3.1827ZM4.50052 2.63681C4.99798 2.63681 5.46573 2.8307 5.81774 3.1827C6.28645 3.65142 6.83559 3.99507 7.42208 4.21418L4.21506 7.42076C3.99682 6.83761 3.65405 6.28935 3.1827 5.818C2.01182 4.66637 2.85768 2.62609 4.50052 2.63681ZM4.50052 33.3632C2.85768 33.3737 2.01191 31.3333 3.18261 30.1821L30.1814 3.18278C30.5334 2.8307 31.0015 2.63681 31.4994 2.63681C33.142 2.62609 33.9882 4.66672 32.8174 5.81782L5.81853 32.8172C5.46653 33.1693 4.99842 33.3632 4.50052 33.3632ZM10.5789 31.7856L31.7847 10.5794C32.0028 11.1625 32.3456 11.7109 32.8174 12.1827C33.5436 12.9091 33.5435 14.0913 32.8174 14.818L14.8186 32.817C14.0917 33.5435 12.9091 33.5435 12.1827 32.8175C11.7139 32.3484 11.165 32.0048 10.5789 31.7856ZM41.8174 21.1828C42.5437 21.9091 42.5436 23.0913 41.8174 23.818C40.0617 25.5736 40.0566 28.4222 41.8172 30.1819C42.5436 30.9087 42.5436 32.0914 41.8177 32.8177C40.0717 34.5626 40.0473 37.412 41.8173 39.1821C42.1694 39.5341 42.3633 40.0023 42.3633 40.5001C42.374 42.1423 40.3331 42.988 39.1823 41.8173C37.4402 40.0752 34.5905 40.0442 32.8175 41.8173C32.0913 42.5437 30.909 42.5436 30.1824 41.8173C28.4268 40.0616 25.5783 40.0564 23.8186 41.8171C23.0918 42.5436 21.9091 42.5436 21.1828 41.8176C19.438 40.0717 16.5886 40.0472 14.8186 41.8172C14.4666 42.1693 13.9985 42.3632 13.5006 42.3632C11.858 42.3739 11.0119 40.3333 12.1827 39.1822C13.0573 38.3075 13.5 37.1538 13.5 35.9972C14.6526 35.9973 15.8053 35.5588 16.683 34.6814C17.4079 33.9561 18.5881 33.9519 19.3182 34.682C21.0731 36.436 23.9279 36.4358 25.6819 34.6817C26.4025 33.9611 27.5834 33.9474 28.3178 34.6817C29.1678 35.5318 30.2977 35.9999 31.4994 35.9999C35.4672 36.0258 37.5083 31.0973 34.6817 28.3176C33.9563 27.5921 33.9516 26.412 34.682 25.6822C36.4357 23.9275 36.4357 21.0725 34.6814 19.3174C33.9562 18.5924 33.9519 17.4123 34.682 16.6821C35.559 15.8046 35.9975 14.652 35.9973 13.4996C37.1465 13.5012 38.2983 13.066 39.1815 12.1828C39.5335 11.8307 40.0016 11.6369 40.4995 11.6369C42.1421 11.6261 42.9882 13.6668 41.8174 14.8179C40.0753 16.5599 40.0443 19.4097 41.8174 21.1828Z" fill="#3CAFC0"/>
</g>
<defs>
<clipPath id="clip0_0_137">
<rect width="45" height="45" fill="white"/>
</clipPath>
</defs>
</svg>
