<svg width="49" height="49" viewBox="0 0 49 49" fill="none" xmlns="http://www.w3.org/2000/svg">
<g clip-path="url(#clip0_0_141)">
<path d="M30.6627 0H21.0675C11.5756 0 3.85339 7.7242 3.85339 17.2186C3.85339 24.0788 8.53605 29.3748 10.0506 30.9081C10.0599 31.1447 10.0759 31.3834 10.0959 31.6234C10.0067 31.6061 9.91532 31.5963 9.8222 31.5963C9.26607 31.5963 8.75999 31.9175 8.52322 32.4207L6.41938 36.8924L1.94765 38.9963C1.44445 39.233 1.12327 39.7391 1.12327 40.2952C1.12327 40.8514 1.44445 41.3574 1.94765 41.5942L6.41938 43.698L8.52322 48.1698C8.75999 48.673 9.26607 48.9942 9.8222 48.9942C10.3783 48.9942 10.8844 48.673 11.1212 48.1698L13.225 43.698L14.7193 42.995C17.7775 46.8257 21.7277 49 25.7052 49C27.8505 49 29.9596 48.3983 31.9738 47.2117C33.7932 46.1399 35.4523 44.6434 36.905 42.7636C39.5647 39.3223 41.2043 34.9386 41.36 30.9135C45.9215 26.4743 47.8767 22.3501 47.8767 17.2186C47.8768 7.7242 40.1545 0 30.6627 0ZM6.72448 17.2186C6.72448 9.30732 13.1587 2.87109 21.0675 2.87109H29.236C29.1405 5.20539 28.4641 7.34464 27.2135 9.24463C26.4353 10.4268 25.6238 11.2091 25.1903 11.5845C20.4629 11.7151 16.5551 13.6518 13.8658 17.2063C11.9496 19.7389 10.7254 22.982 10.2554 26.7153C8.6419 24.5388 6.72448 21.1296 6.72448 17.2186ZM11.5349 41.3202C11.2326 41.4624 10.9893 41.7057 10.8471 42.008L9.82211 44.1866L8.79713 42.008C8.65491 41.7057 8.41164 41.4624 8.10931 41.3202L5.93072 40.2952L8.10931 39.2702C8.41164 39.128 8.65491 38.8848 8.79713 38.5824L9.82211 36.4038L10.8471 38.5824C10.9893 38.8848 11.2326 39.128 11.5349 39.2702L13.7135 40.2952L11.5349 41.3202ZM34.6334 41.0079C32.0811 44.3103 28.9104 46.1289 25.7052 46.1289C22.7899 46.1289 19.8311 44.5457 17.4014 41.7332L17.6967 41.5942C18.1999 41.3574 18.521 40.8514 18.521 40.2952C18.521 39.7391 18.1999 39.233 17.6967 38.9963L14.7011 37.5868C13.5429 35.1601 12.9081 32.5858 12.9081 30.2883C12.9081 25.671 14.0309 21.7463 16.1555 18.9385C18.4098 15.959 21.6225 14.4481 25.7042 14.4478C25.705 14.4478 25.7057 14.4479 25.7064 14.4479C25.7073 14.4479 25.7082 14.4478 25.709 14.4478C29.7894 14.4488 33.0011 15.9595 35.255 18.9384C37.3795 21.7462 38.5025 25.671 38.5025 30.2882C38.5024 33.866 37.0561 37.8733 34.6334 41.0079ZM41.1802 26.9162C40.7293 23.098 39.4951 19.7842 37.5445 17.2063C35.3754 14.3394 32.4137 12.5251 28.8686 11.8616C30.3261 10.0147 31.9522 7.05696 32.1086 2.94373C39.3409 3.67127 45.0056 9.7956 45.0056 17.2187C45.0056 19.3566 44.6178 21.1847 43.7848 22.9722C43.1763 24.2783 42.315 25.5831 41.1802 26.9162Z" fill="#3CAFC0"/>
<path d="M33.3548 27.0301C31.5394 27.8333 30.1623 27.1049 30.1042 27.0734C29.4971 26.711 28.5426 26.9125 28.1369 27.5965C27.6963 28.3519 28.0269 29.323 28.8371 29.6523C29.8252 30.054 30.491 30.2742 31.6594 30.2742C32.515 30.2742 33.5071 30.1117 34.57 29.6318C35.3216 29.2923 35.639 28.3857 35.2448 27.6459C34.8867 26.974 34.051 26.7221 33.3548 27.0301Z" fill="#3CAFC0"/>
<path d="M23.2974 27.6459C22.9394 26.974 22.1037 26.7221 21.4075 27.0302C19.5922 27.8334 18.215 27.105 18.1569 27.0735C17.5498 26.7112 16.5953 26.9126 16.1896 27.5966C15.749 28.352 16.0797 29.3231 16.8898 29.6524C17.8779 30.0541 18.5437 30.2743 19.7122 30.2743C20.5678 30.2743 21.5599 30.1118 22.6228 29.6319C23.3743 29.2923 23.6916 28.3857 23.2974 27.6459Z" fill="#3CAFC0"/>
<path d="M29.0019 36.6868C25.3043 38.3567 22.4855 36.8159 22.3674 36.7495C21.747 36.3506 20.7605 36.5404 20.3469 37.2452C19.9151 37.9854 20.2201 38.9392 21.0038 39.2858C22.283 39.8516 23.6239 40.3292 25.5534 40.3292C26.8981 40.3292 28.4639 40.0741 30.1507 39.3181C30.8587 39.0007 31.2152 38.1747 30.9232 37.456C30.6149 36.6973 29.7413 36.3528 29.0019 36.6868Z" fill="#3CAFC0"/>
<path d="M45.3439 45.152C46.1367 45.152 46.7794 44.5093 46.7794 43.7164C46.7794 42.9236 46.1367 42.2809 45.3439 42.2809C44.551 42.2809 43.9083 42.9236 43.9083 43.7164C43.9083 44.5093 44.551 45.152 45.3439 45.152Z" fill="#3CAFC0"/>
<path d="M43.9442 38.4649C44.737 38.4649 45.3797 37.8222 45.3797 37.0294C45.3797 36.2365 44.737 35.5938 43.9442 35.5938C43.1514 35.5938 42.5087 36.2365 42.5087 37.0294C42.5087 37.8222 43.1514 38.4649 43.9442 38.4649Z" fill="#3CAFC0"/>
</g>
<defs>
<clipPath id="clip0_0_141">
<rect width="49" height="49" fill="white"/>
</clipPath>
</defs>
</svg>
