<svg width="46" height="46" viewBox="0 0 46 46" fill="none" xmlns="http://www.w3.org/2000/svg">
<path d="M32.3197 38.6495L34.841 40.0309L36.2225 37.5096L33.7011 36.1281L32.3197 38.6495Z" fill="#3CAFC0"/>
<path d="M29.5451 43.6984L32.0668 45.0793L33.4476 42.5576L30.926 41.1767L29.5451 43.6984Z" fill="#3CAFC0"/>
<path d="M38.4283 15.6687L37.9568 14.8364C36.0395 11.4588 35.031 7.64157 35.0301 3.75763V0H32.1551V3.75763C32.1556 5.39161 32.3145 7.02165 32.6294 8.625H14.3646C14.7233 6.91752 14.9044 5.17752 14.9051 3.43275V0H12.0301V3.43275C12.0301 7.51022 10.922 11.511 8.82445 15.0075C5.30114 20.9157 4.3107 27.9955 6.07739 34.6437L9.21689 44.9765L11.9683 44.1399L8.84314 33.8589C7.56727 29.0013 7.94515 23.8571 9.91695 19.2381L21.9488 25.2511C17.9756 30.8157 16.3426 38.5437 16.3426 46H19.2176C19.2176 40.0128 20.5401 20.6741 37.2194 20.1494C38.442 24.0433 38.0176 28.2678 36.0449 31.8406L35.0746 33.6131L37.596 34.9945L38.5649 33.2221C41.5651 27.7429 41.5135 21.1006 38.4283 15.6687ZM23.8176 22.9756L11.1949 16.6635C11.2294 16.606 11.2553 16.5442 11.2883 16.4881C12.23 14.9133 12.9978 13.2407 13.5783 11.5H33.3784C33.9075 13.152 34.6055 14.745 35.4613 16.2538L35.9328 17.0861C35.9774 17.1637 36.0076 17.25 36.0507 17.3291C31.4032 17.5866 27.0285 19.6057 23.8176 22.9756Z" fill="#3CAFC0"/>
</svg>
