<svg width="52" height="52" viewBox="0 0 52 52" fill="none" xmlns="http://www.w3.org/2000/svg">
<path d="M44.2068 5.2L41.0062 6.53068C42.55 10.2466 43.3337 14.1731 43.3337 18.201C43.3337 22.5077 39.8419 26 35.5337 26C31.226 26 27.7337 22.5077 27.7337 18.2H24.2674C24.2674 22.5077 20.775 26 16.4674 26C12.1592 26 8.66736 22.5077 8.66736 18.201C8.66736 14.1731 9.451 10.2466 10.9949 6.53068L7.79324 5.2C6.12924 9.20504 5.2 13.5954 5.2 18.2C5.1896 27.7384 6.99764 37.4447 10.8722 46.8L14.0748 45.473C11.5814 39.4534 9.9632 33.1989 9.19464 26.7987C11.1576 28.4612 13.6937 29.4668 16.4663 29.4668C19.5317 29.4668 22.3059 28.2396 24.3376 26.2527V46.8H27.6619V26.2527C29.693 28.2391 32.4678 29.4668 35.5332 29.4668C38.3058 29.4668 40.8418 28.4612 42.8048 26.7987C42.0363 33.1994 40.418 39.4534 37.9246 45.473L41.1278 46.8C45.0024 37.4447 46.8104 27.7384 46.8 18.2C46.8 13.5954 45.8708 9.20504 44.2068 5.2Z" fill="#3CAFC0"/>
</svg>
