<svg width="26" height="26" viewBox="0 0 26 26" fill="none" xmlns="http://www.w3.org/2000/svg">
<g clip-path="url(#clip0_0_123)">
<path d="M15.793 26H6.09375C3.85362 26 2.03125 24.1776 2.03125 21.9375V8.17578C2.03125 5.93565 3.85362 4.11328 6.09375 4.11328H15.793C18.0331 4.11328 19.8555 5.93565 19.8555 8.17578V21.9375C19.8555 24.1776 18.0331 26 15.793 26ZM6.09375 6.14453C4.97379 6.14453 4.0625 7.05582 4.0625 8.17578V21.9375C4.0625 23.0575 4.97379 23.9688 6.09375 23.9688H15.793C16.9129 23.9688 17.8242 23.0575 17.8242 21.9375V8.17578C17.8242 7.05582 16.9129 6.14453 15.793 6.14453H6.09375ZM23.918 19.3984V4.0625C23.918 1.82237 22.0956 0 19.8555 0H8.58203C8.02106 0 7.56641 0.454651 7.56641 1.01562C7.56641 1.5766 8.02106 2.03125 8.58203 2.03125H19.8555C20.9754 2.03125 21.8867 2.94254 21.8867 4.0625V19.3984C21.8867 19.9594 22.3414 20.4141 22.9023 20.4141C23.4633 20.4141 23.918 19.9594 23.918 19.3984Z" fill="white"/>
</g>
<defs>
<clipPath id="clip0_0_123">
<rect width="26" height="26" fill="white"/>
</clipPath>
</defs>
</svg>
