<svg width="26" height="26" viewBox="0 0 26 26" fill="none" xmlns="http://www.w3.org/2000/svg">
<path fill-rule="evenodd" clip-rule="evenodd" d="M0.262533 20.7564C0.24783 21.2683 0.397434 21.7787 0.700644 22.2081C1.14955 22.8439 1.87999 23.2222 2.65838 23.2222H20.3936C21.408 23.2222 22.3129 22.5834 22.6525 21.6271C22.6526 21.627 22.6526 21.6269 22.6527 21.6268C23.3178 19.7514 24.7115 15.8239 25.5811 13.372L25.5809 13.3725C25.8417 12.6389 25.7297 11.8243 25.2802 11.1878C25.2802 11.1877 25.2801 11.1876 25.28 11.1875C24.8306 10.5519 24.1008 10.1738 23.3224 10.1738H22.3212V8.02012C22.3212 7.3843 22.0684 6.77488 21.619 6.32545C21.1696 5.87602 20.56 5.62327 19.9242 5.62327H14.0462C13.8206 5.62327 13.6055 5.52781 13.4542 5.36067C13.4542 5.36065 13.4542 5.36062 13.4542 5.3606C12.9872 4.84493 12.2793 4.06285 11.8124 3.54718C11.3583 3.04515 10.7123 2.75867 10.0356 2.75867H2.65838C1.3347 2.75867 0.261543 3.83194 0.261543 5.15561V20.7166C0.261543 20.73 0.261865 20.7432 0.262533 20.7564ZM24.0751 12.8372C24.075 12.8374 24.075 12.8376 24.0749 12.8378C23.2053 15.2895 21.8117 19.2167 21.1466 21.0923C21.0333 21.411 20.7318 21.624 20.3936 21.624H2.6584C2.39913 21.624 2.15575 21.4982 2.00621 21.2864C2.00619 21.2863 2.00617 21.2863 2.00614 21.2862C1.85633 21.0741 1.81894 20.8026 1.90562 20.5581C2.77561 18.1064 4.16918 14.1795 4.83428 12.3038C4.94757 11.985 5.24908 11.772 5.58724 11.772H23.3225C23.5819 11.772 23.8251 11.8981 23.975 12.1099C24.1245 12.3219 24.1619 12.593 24.0751 12.8372ZM20.723 10.1738V8.02012C20.723 7.80826 20.6387 7.60525 20.4889 7.45551C20.3392 7.30575 20.1361 7.22142 19.9242 7.22142H14.0463C13.369 7.22142 12.7237 6.93493 12.2696 6.43334C11.8026 5.91764 11.0946 5.1355 10.6277 4.61981C10.6277 4.61971 10.6276 4.61965 10.6275 4.61958C10.4762 4.45228 10.261 4.35682 10.0356 4.35682H2.6584C2.2173 4.35682 1.85972 4.71451 1.85972 5.15561V15.9085C2.42925 14.3034 2.9791 12.7537 3.32819 11.7693C3.32823 11.7691 3.3283 11.7689 3.32835 11.7687C3.66816 10.8125 4.57287 10.1738 5.58724 10.1738H20.723Z" fill="white"/>
</svg>
