<svg width="27" height="27" viewBox="0 0 27 27" fill="none" xmlns="http://www.w3.org/2000/svg">
<g clip-path="url(#clip0_0_86)">
<path d="M24.4687 1.6876C24.4632 6.73638 22.4525 11.5762 18.8789 15.1427C15.3053 18.7092 10.4614 20.7102 5.41266 20.7057L9.42469 24.7178C9.56984 24.8785 9.64761 25.0889 9.6419 25.3055C9.63619 25.522 9.54743 25.728 9.39401 25.8809C9.24058 26.0338 9.03424 26.1218 8.81771 26.1267C8.60117 26.1317 8.39102 26.0532 8.23078 25.9074L2.78016 20.4568C2.70171 20.3785 2.63947 20.2854 2.59701 20.183C2.55455 20.0805 2.5327 19.9707 2.5327 19.8599C2.5327 19.749 2.55455 19.6392 2.59701 19.5368C2.63947 19.4343 2.70171 19.3413 2.78016 19.2629L8.23078 13.8123C8.30917 13.7339 8.40224 13.6717 8.50466 13.6293C8.60709 13.5869 8.71687 13.565 8.82773 13.565C8.9386 13.565 9.04838 13.5869 9.1508 13.6293C9.25323 13.6717 9.34629 13.7339 9.42469 13.8123C9.50308 13.8907 9.56527 13.9837 9.60769 14.0862C9.65012 14.1886 9.67195 14.2984 9.67195 14.4092C9.67195 14.5201 9.65012 14.6299 9.60769 14.7323C9.56527 14.8347 9.50308 14.9278 9.42469 15.0062L5.41266 19.0182C10.0139 19.0227 14.4285 17.1995 17.6856 13.9494C20.9428 10.6994 22.7757 6.28883 22.7812 1.6876C22.7812 1.46382 22.8701 1.24921 23.0284 1.09097C23.1866 0.932741 23.4012 0.843847 23.625 0.843847C23.8488 0.843847 24.0634 0.932741 24.2216 1.09097C24.3799 1.24921 24.4687 1.46382 24.4687 1.6876Z" fill="#3CAFC0"/>
</g>
<defs>
<clipPath id="clip0_0_86">
<rect width="27" height="27" fill="white" transform="matrix(-4.37114e-08 -1 -1 4.37114e-08 27 27)"/>
</clipPath>
</defs>
</svg>
