<svg width="19" height="19" viewBox="0 0 19 19" fill="none" xmlns="http://www.w3.org/2000/svg">
<path fill-rule="evenodd" clip-rule="evenodd" d="M10.5015 14.9013L12.726 12.6767C12.7355 12.6672 12.7442 12.6577 12.753 12.6482C12.753 12.6482 13.1401 12.2065 13.695 11.5716C14.8137 10.293 15.3433 8.60283 15.1541 6.915C14.9649 5.22717 14.0742 3.69609 12.7007 2.697L12.6991 2.69621C10.8055 1.31871 8.23887 1.31871 6.34439 2.69621C6.3436 2.69621 6.3436 2.697 6.34281 2.697C4.96927 3.69609 4.07864 5.22717 3.88944 6.915C3.70102 8.60283 4.22985 10.293 5.34848 11.5716C5.90423 12.2065 6.29056 12.6482 6.29056 12.6482C6.29927 12.6577 6.30798 12.6672 6.31748 12.6767L8.54208 14.9013C9.08358 15.4428 9.96074 15.4428 10.5015 14.9013ZM9.66149 14.0622C9.5847 14.139 9.45962 14.139 9.38204 14.0622L7.17169 11.851L6.24227 10.7894C5.34373 9.76183 4.91781 8.40412 5.06981 7.04721C5.22181 5.69029 5.93749 4.46084 7.04186 3.65729L7.04264 3.6565C8.5207 2.58142 10.5228 2.58142 12.0009 3.6565L12.0025 3.65729C13.106 4.46084 13.8217 5.69029 13.9737 7.04721C14.1257 8.40412 13.7006 9.76183 12.8012 10.7894L11.8726 11.851L9.66149 14.0622Z" fill="#3CAFC0"/>
<path fill-rule="evenodd" clip-rule="evenodd" d="M9.57679 5.02441C8.41779 5.02441 7.47729 5.96571 7.47729 7.12471C7.47729 8.28372 8.41779 9.22501 9.57679 9.22501C10.7358 9.22501 11.6771 8.28372 11.6771 7.12471C11.6771 5.96571 10.7358 5.02441 9.57679 5.02441ZM9.57679 6.21191C10.0803 6.21191 10.4896 6.62121 10.4896 7.12471C10.4896 7.62821 10.0803 8.03751 9.57679 8.03751C9.07329 8.03751 8.66479 7.62821 8.66479 7.12471C8.66479 6.62121 9.07329 6.21191 9.57679 6.21191Z" fill="#3CAFC0"/>
<path fill-rule="evenodd" clip-rule="evenodd" d="M4.75 17.2188H14.25C14.5778 17.2188 14.8438 16.9528 14.8438 16.625C14.8438 16.2973 14.5778 16.0312 14.25 16.0312H4.75C4.42225 16.0312 4.15625 16.2973 4.15625 16.625C4.15625 16.9528 4.42225 17.2188 4.75 17.2188Z" fill="#3CAFC0"/>
</svg>
