<svg width="22" height="22" viewBox="0 0 22 22" fill="none" xmlns="http://www.w3.org/2000/svg">
<path d="M20.625 4.8125C20.625 4.99484 20.5526 5.1697 20.4236 5.29864C20.2947 5.42757 20.1198 5.5 19.9375 5.5H2.0625C1.88016 5.5 1.7053 5.42757 1.57636 5.29864C1.44743 5.1697 1.375 4.99484 1.375 4.8125C1.375 4.63016 1.44743 4.4553 1.57636 4.32636C1.7053 4.19743 1.88016 4.125 2.0625 4.125H19.9375C20.1198 4.125 20.2947 4.19743 20.4236 4.32636C20.5526 4.4553 20.625 4.63016 20.625 4.8125ZM17.1875 10.3125H2.0625C1.88016 10.3125 1.7053 10.3849 1.57636 10.5139C1.44743 10.6428 1.375 10.8177 1.375 11C1.375 11.1823 1.44743 11.3572 1.57636 11.4861C1.7053 11.6151 1.88016 11.6875 2.0625 11.6875H17.1875C17.3698 11.6875 17.5447 11.6151 17.6736 11.4861C17.8026 11.3572 17.875 11.1823 17.875 11C17.875 10.8177 17.8026 10.6428 17.6736 10.5139C17.5447 10.3849 17.3698 10.3125 17.1875 10.3125ZM11 16.5H2.0625C1.88016 16.5 1.7053 16.5724 1.57636 16.7014C1.44743 16.8303 1.375 17.0052 1.375 17.1875C1.375 17.3698 1.44743 17.5447 1.57636 17.6736C1.7053 17.8026 1.88016 17.875 2.0625 17.875H11C11.1823 17.875 11.3572 17.8026 11.4861 17.6736C11.6151 17.5447 11.6875 17.3698 11.6875 17.1875C11.6875 17.0052 11.6151 16.8303 11.4861 16.7014C11.3572 16.5724 11.1823 16.5 11 16.5Z" fill="#76686A"/>
</svg>
