<svg width="28" height="28" viewBox="0 0 28 28" fill="none" xmlns="http://www.w3.org/2000/svg">
<g clip-path="url(#clip0_0_242)">
<path d="M14 0C6.26812 0 0 6.26812 0 14C0 16.8454 0.851102 19.4914 2.30951 21.701L0 28L6.51481 25.8286C8.68 27.2015 11.2459 28 14 28C21.7319 28 28 21.7319 28 14C28 6.26812 21.7319 0 14 0Z" fill="white"/>
<path d="M21.7237 18.3246V20.6501C21.7271 21.5065 21.0343 22.2031 20.1765 22.207C20.1277 22.207 20.079 22.2051 20.0302 22.2007C17.6401 21.9415 15.3441 21.1266 13.3271 19.8207C11.4506 18.6307 9.8594 17.0424 8.6665 15.1693C7.35389 13.147 6.53707 10.8443 6.28218 8.4483C6.20496 7.59572 6.83496 6.84169 7.6894 6.76442C7.73572 6.76103 7.7816 6.75862 7.82797 6.75862H10.1583C10.9379 6.75091 11.6027 7.32152 11.7118 8.09201C11.8103 8.83642 11.9928 9.56683 12.2554 10.2702C12.4688 10.837 12.3321 11.4756 11.9059 11.9058L10.9196 12.8901C12.0251 14.8308 13.6356 16.4379 15.5801 17.5415L16.5664 16.5572C16.9975 16.1314 17.6376 15.9953 18.2054 16.2082C18.9102 16.4708 19.6421 16.6528 20.3879 16.7508C21.169 16.8609 21.7434 17.5377 21.7237 18.3246Z" fill="#3CAFC0"/>
</g>
<defs>
<clipPath id="clip0_0_242">
<rect width="28" height="28" fill="white"/>
</clipPath>
</defs>
</svg>
