<svg width="75" height="15" viewBox="0 0 75 15" fill="none" xmlns="http://www.w3.org/2000/svg">
<path d="M7.02447 1.46353C7.17415 1.00287 7.82585 1.00287 7.97553 1.46353L9.0716 4.83688C9.13854 5.04289 9.33051 5.18237 9.54713 5.18237H13.0941C13.5784 5.18237 13.7798 5.80218 13.388 6.08688L10.5184 8.17173C10.3432 8.29905 10.2699 8.52474 10.3368 8.73075L11.4329 12.1041C11.5825 12.5648 11.0553 12.9478 10.6634 12.6631L7.79389 10.5783C7.61865 10.4509 7.38135 10.4509 7.20611 10.5783L4.33656 12.6631C3.9447 12.9478 3.41746 12.5648 3.56714 12.1041L4.66321 8.73075C4.73015 8.52474 4.65682 8.29905 4.48157 8.17173L1.61203 6.08688C1.22017 5.80218 1.42156 5.18237 1.90592 5.18237H5.45287C5.66949 5.18237 5.86146 5.04289 5.9284 4.83688L7.02447 1.46353Z" fill="#3CAFC0"/>
<path d="M22.0245 1.46353C22.1741 1.00287 22.8259 1.00287 22.9755 1.46353L24.0716 4.83688C24.1385 5.04289 24.3305 5.18237 24.5471 5.18237H28.0941C28.5784 5.18237 28.7798 5.80218 28.388 6.08688L25.5184 8.17173C25.3432 8.29905 25.2699 8.52474 25.3368 8.73075L26.4329 12.1041C26.5825 12.5648 26.0553 12.9478 25.6634 12.6631L22.7939 10.5783C22.6186 10.4509 22.3814 10.4509 22.2061 10.5783L19.3366 12.6631C18.9447 12.9478 18.4175 12.5648 18.5671 12.1041L19.6632 8.73075C19.7301 8.52474 19.6568 8.29905 19.4816 8.17173L16.612 6.08688C16.2202 5.80218 16.4216 5.18237 16.9059 5.18237H20.4529C20.6695 5.18237 20.8615 5.04289 20.9284 4.83688L22.0245 1.46353Z" fill="#3CAFC0"/>
<path d="M37.0245 1.46353C37.1741 1.00287 37.8259 1.00287 37.9755 1.46353L39.0716 4.83688C39.1385 5.04289 39.3305 5.18237 39.5471 5.18237H43.0941C43.5784 5.18237 43.7798 5.80218 43.388 6.08688L40.5184 8.17173C40.3432 8.29905 40.2699 8.52474 40.3368 8.73075L41.4329 12.1041C41.5825 12.5648 41.0553 12.9478 40.6634 12.6631L37.7939 10.5783C37.6186 10.4509 37.3814 10.4509 37.2061 10.5783L34.3366 12.6631C33.9447 12.9478 33.4175 12.5648 33.5671 12.1041L34.6632 8.73075C34.7301 8.52474 34.6568 8.29905 34.4816 8.17173L31.612 6.08688C31.2202 5.80218 31.4216 5.18237 31.9059 5.18237H35.4529C35.6695 5.18237 35.8615 5.04289 35.9284 4.83688L37.0245 1.46353Z" fill="#3CAFC0"/>
<path d="M52.0245 1.46353C52.1741 1.00287 52.8259 1.00287 52.9755 1.46353L54.0716 4.83688C54.1385 5.04289 54.3305 5.18237 54.5471 5.18237H58.0941C58.5784 5.18237 58.7798 5.80218 58.388 6.08688L55.5184 8.17173C55.3432 8.29905 55.2699 8.52474 55.3368 8.73075L56.4329 12.1041C56.5825 12.5648 56.0553 12.9478 55.6634 12.6631L52.7939 10.5783C52.6186 10.4509 52.3814 10.4509 52.2061 10.5783L49.3366 12.6631C48.9447 12.9478 48.4175 12.5648 48.5671 12.1041L49.6632 8.73075C49.7301 8.52474 49.6568 8.29905 49.4816 8.17173L46.612 6.08688C46.2202 5.80218 46.4216 5.18237 46.9059 5.18237H50.4529C50.6695 5.18237 50.8615 5.04289 50.9284 4.83688L52.0245 1.46353Z" fill="#3CAFC0"/>
<path d="M67.0245 1.46353C67.1741 1.00287 67.8259 1.00287 67.9755 1.46353L69.0716 4.83688C69.1385 5.04289 69.3305 5.18237 69.5471 5.18237H73.0941C73.5784 5.18237 73.7798 5.80218 73.388 6.08688L70.5184 8.17173C70.3432 8.29905 70.2699 8.52474 70.3368 8.73075L71.4329 12.1041C71.5825 12.5648 71.0553 12.9478 70.6634 12.6631L67.7939 10.5783C67.6186 10.4509 67.3814 10.4509 67.2061 10.5783L64.3366 12.6631C63.9447 12.9478 63.4175 12.5648 63.5671 12.1041L64.6632 8.73075C64.7301 8.52474 64.6568 8.29905 64.4816 8.17173L61.612 6.08688C61.2202 5.80218 61.4216 5.18237 61.9059 5.18237H65.4529C65.6695 5.18237 65.8615 5.04289 65.9284 4.83688L67.0245 1.46353Z" fill="#3CAFC0"/>
</svg>
