<svg width="68" height="68" viewBox="0 0 68 68" fill="none" xmlns="http://www.w3.org/2000/svg">
<g clip-path="url(#clip0_18_4)">
<path d="M22.8461 5.66282C31.4293 9.73179 38.0449 17.0433 41.2379 25.9894C44.4309 34.9355 43.9399 44.7835 39.8728 53.3675L49.9229 49.7692C50.3131 49.6515 50.7335 49.6884 51.0972 49.8722C51.4609 50.056 51.74 50.3727 51.8767 50.7566C52.0134 51.1405 51.9972 51.5622 51.8315 51.9345C51.6658 52.3068 51.3633 52.6011 50.9866 52.7565L37.3328 57.6451C37.1365 57.7156 36.9281 57.7466 36.7198 57.7365C36.5114 57.7263 36.3071 57.6752 36.1185 57.5861C35.9299 57.4969 35.7607 57.3715 35.6206 57.2169C35.4805 57.0623 35.3723 56.8816 35.3021 56.6852L30.4134 43.0314C30.3431 42.8351 30.3122 42.6268 30.3223 42.4184C30.3325 42.2101 30.3837 42.0058 30.4728 41.8173C30.5619 41.6287 30.6874 41.4595 30.8419 41.3194C30.9964 41.1793 31.177 41.071 31.3734 41.0007C31.5697 40.9304 31.778 40.8994 31.9864 40.9096C32.1947 40.9198 32.399 40.9709 32.5876 41.0601C32.7761 41.1492 32.9453 41.2746 33.0854 41.4291C33.2255 41.5837 33.3338 41.7643 33.4041 41.9606L37.0025 52.0107C40.7097 44.1879 41.158 35.2129 38.2488 27.0596C35.3397 18.9063 29.3112 12.2423 21.4893 8.53316C21.1086 8.35324 20.8151 8.02947 20.6732 7.6331C20.5312 7.23673 20.5526 6.80021 20.7325 6.41958C20.9124 6.03895 21.2362 5.74538 21.6326 5.60346C22.0289 5.46154 22.4655 5.4829 22.8461 5.66282Z" fill="white"/>
</g>
<mask id="mask0_18_4" style="mask-type:alpha" maskUnits="userSpaceOnUse" x="0" y="0" width="68" height="68">
<g clip-path="url(#clip1_18_4)">
<path d="M22.8461 5.66307C31.4293 9.73203 38.0449 17.0436 41.2379 25.9896C44.4309 34.9357 43.9399 44.7837 39.8728 53.3678L49.9229 49.7694C50.3131 49.6518 50.7335 49.6887 51.0972 49.8725C51.4609 50.0563 51.74 50.3729 51.8767 50.7568C52.0134 51.1407 51.9972 51.5625 51.8315 51.9347C51.6658 52.307 51.3633 52.6013 50.9866 52.7567L37.3328 57.6454C37.1365 57.7158 36.9281 57.7469 36.7198 57.7367C36.5114 57.7266 36.3071 57.6755 36.1185 57.5863C35.9299 57.4972 35.7607 57.3717 35.6206 57.2171C35.4805 57.0626 35.3723 56.8819 35.3021 56.6854L30.4134 43.0317C30.3431 42.8353 30.3122 42.627 30.3223 42.4187C30.3325 42.2104 30.3837 42.0061 30.4728 41.8175C30.5619 41.6289 30.6874 41.4598 30.8419 41.3196C30.9964 41.1795 31.177 41.0712 31.3734 41.0009C31.5697 40.9306 31.778 40.8997 31.9864 40.9099C32.1947 40.9201 32.399 40.9712 32.5876 41.0603C32.7761 41.1495 32.9453 41.2749 33.0854 41.4294C33.2255 41.5839 33.3338 41.7645 33.4041 41.9609L37.0025 52.011C40.7097 44.1881 41.158 35.2132 38.2488 27.0598C35.3397 18.9065 29.3112 12.2425 21.4893 8.53341C21.1086 8.35348 20.8151 8.02972 20.6732 7.63334C20.5312 7.23697 20.5526 6.80045 20.7325 6.41982C20.9124 6.03919 21.2362 5.74563 21.6326 5.60371C22.0289 5.46179 22.4655 5.48314 22.8461 5.66307Z" fill="white"/>
</g>
</mask>
<g mask="url(#mask0_18_4)">
<rect x="-10" y="35.0002" width="65" height="56" fill="#3CAFC0"/>
</g>
<defs>
<clipPath id="clip0_18_4">
<rect width="50.798" height="50.798" fill="white" transform="matrix(-0.90408 -0.427364 -0.427364 0.90408 67.9364 21.7097)"/>
</clipPath>
<clipPath id="clip1_18_4">
<rect width="50.798" height="50.798" fill="white" transform="matrix(-0.90408 -0.427364 -0.427364 0.90408 67.9364 21.71)"/>
</clipPath>
</defs>
</svg>
